<svg width="12" height="19" viewBox="0 0 12 19" fill="none" xmlns="http://www.w3.org/2000/svg">
<path d="M9.12499 18.6L0.699987 10.2C0.599987 10.1 0.529321 9.99166 0.487988 9.87499C0.445988 9.75833 0.424988 9.63333 0.424988 9.49999C0.424988 9.36666 0.445988 9.24166 0.487988 9.12499C0.529321 9.00833 0.599987 8.89999 0.699987 8.79999L9.12499 0.374994C9.35832 0.14166 9.64999 0.0249939 9.99999 0.0249939C10.35 0.0249939 10.65 0.149994 10.9 0.399994C11.15 0.649994 11.275 0.941661 11.275 1.27499C11.275 1.60833 11.15 1.89999 10.9 2.14999L3.54999 9.49999L10.9 16.85C11.1333 17.0833 11.25 17.3707 11.25 17.712C11.25 18.054 11.125 18.35 10.875 18.6C10.625 18.85 10.3333 18.975 9.99999 18.975C9.66665 18.975 9.37499 18.85 9.12499 18.6Z" fill="#090937"/>
</svg>
